<svg xmlns="http://www.w3.org/2000/svg"  viewBox="0 0 72 72" width="64px" height="64px" baseProfile="basic"><path fill="#060000" d="M47.534,25.979c-4.687,0-8.5-3.813-8.5-8.5s3.813-8.5,8.5-8.5s8.5,3.813,8.5,8.5 S52.22,25.979,47.534,25.979z M47.534,12.979c-2.481,0-4.5,2.019-4.5,4.5s2.019,4.5,4.5,4.5s4.5-2.019,4.5-4.5 S50.015,12.979,47.534,12.979z"/><path fill="#060000" d="M31.001,23.479c-3.309,0-6-2.691-6-6s2.691-6,6-6s6,2.691,6,6S34.31,23.479,31.001,23.479z M31.001,15.479c-1.103,0-2,0.897-2,2s0.897,2,2,2c1.103,0,2-0.897,2-2S32.104,15.479,31.001,15.479z"/><path fill="#060000" d="M18.471,22.948c-3.032,0-5.5-2.467-5.5-5.5s2.468-5.5,5.5-5.5s5.5,2.467,5.5,5.5 S21.503,22.948,18.471,22.948z M18.471,15.948c-0.827,0-1.5,0.673-1.5,1.5s0.673,1.5,1.5,1.5s1.5-0.673,1.5-1.5 S19.298,15.948,18.471,15.948z"/><path fill="#060000" d="M56.982,64.988l-19.983,0.02c-1.897,0-3.993-1.581-3.993-3.874v-5.119l-8.005-0.02 c-2.016,0-4.012-1.66-4.012-3.973v-0.988l-6.997-0.02c-1.818,0-4.012-1.581-4.012-3.913l0.102-12.944 c0-4.694,4.533-9.098,9.762-9.124c2.759-0.014,4.998,1.025,6.562,2.486c1.743-1,3.225-1.512,5.639-1.512 c3.654,0,6.921,1.717,8.664,4.024c2.179-1.102,4.209-1.158,6.587-1.077c7.51,0.256,13.717,6.533,13.717,13.995v18.065 C61.014,63.09,59.255,64.988,56.982,64.988z M40.992,57.003l11.997,0.02l-0.006-14.024c0.011-4.505-3.93-5.999-6.254-6.078 c-1.883-0.064-3.354,0.389-4.492,1.297c-0.585,0.467-1.747,1.62-3.884,1.23c-2.162-0.395-2.839-2.287-3.091-3.16 c-0.32-1.107-1.452-2.292-3.216-2.312c-1.318-0.015-2.429,0.816-3.061,1.973c-0.404,0.741-1.929,1.982-3.619,1.823 c-2.126-0.2-3.362-1.829-3.52-2.656c-0.266-1.39-0.778-2.062-1.842-2.122c-1.088-0.061-1.982,0.737-2.011,2.014l0.011,8.002 l6.997-0.02c2.095,0,3.993,1.739,3.993,4.012l0.007,1.005l7.938-0.017c2.609,0,4.052,2.194,4.052,4.032V57.003z"/></svg>