<svg xmlns="http://www.w3.org/2000/svg"  viewBox="0 0 72 72" width="64px" height="64px"><path d="M 19 13 C 14.037 13 10 17.038 10 22 L 10 49 C 10 53.962 14.037 58 19 58 L 53 58 C 57.963 58 62 53.962 62 49 L 62 26 C 62 21.038 57.963 17 53 17 L 32.753906 17 C 32.526906 17 32.307813 16.923203 32.132812 16.783203 L 29.869141 14.974609 C 28.280141 13.701609 26.283094 13 24.246094 13 L 19 13 z M 19 21 L 24.246094 21 C 24.473094 21 24.693094 21.07675 24.871094 21.21875 L 27.130859 23.025391 C 28.719859 24.298391 30.716906 25 32.753906 25 L 53 25 C 53.552 25 54 25.449 54 26 L 54 29 L 18 29 L 18 22 C 18 21.449 18.448 21 19 21 z M 18 37 L 54 37 L 54 49 C 54 49.551 53.552 50 53 50 L 19 50 C 18.448 50 18 49.551 18 49 L 18 37 z"/></svg>