<svg xmlns="http://www.w3.org/2000/svg"  viewBox="0 0 72 72" width="64px" height="64px"><path d="M56.586,40H29.466c-0.486,0-0.923,0.299-1.099,0.752L24.771,50c0.15,0,0.295,0,0.44,0h27.237	c0.445,0,0.845-0.273,1.006-0.688l3.443-8.855c0.043-0.11,0.024-0.224-0.036-0.311C56.803,40.059,56.703,40,56.586,40z M53,25	H32.754c-2.037,0-4.035-0.701-5.624-1.974l-2.259-1.807C24.693,21.077,24.473,21,24.246,21H19c-0.552,0-1,0.449-1,1v22.736	c0,0.172,0,0.578,0,0.6l3.202-8.235C22.409,34.001,25.336,32,28.659,32H54v-6C54,25.449,53.552,25,53,25z M53,17	c4.963,0,9,4.038,9,9v6.351c1.182,0.419,2.223,1.197,2.951,2.261c1.119,1.636,1.358,3.715,0.641,5.562l-4.948,12.725	C59.437,55.999,56.51,58,53.187,58H19c-4.963,0-9-4.038-9-9V22c0-4.962,4.037-9,9-9h5.246c2.037,0,4.035,0.701,5.624,1.974	l2.262,1.809C32.307,16.923,32.527,17,32.754,17H53z"/></svg>